HIERARCHY
ROOT Hips
{
	OFFSET 0.000000 0.000000 0.000000
	CHANNELS 6 Xposition Yposition Zposition Zrotation Yrotation Xrotation 
	JOINT LowerBack
	{
		OFFSET 0.000000 0.000000 0.000000
		CHANNELS 3 Zrotation Yrotation Xrotation
		JOINT Spine
		{
			OFFSET 0.028270 2.035590 -0.193380
			CHANNELS 3 Zrotation Yrotation Xrotation
			JOINT Spine1
			{
				OFFSET 0.056720 2.048850 -0.042750
				CHANNELS 3 Zrotation Yrotation Xrotation
				JOINT Neck
				{
					OFFSET 0.000000 0.000000 0.000000
					CHANNELS 3 Zrotation Yrotation Xrotation
					JOINT Neck1
					{
						OFFSET -0.054170 1.746240 0.172020
						CHANNELS 3 Zrotation Yrotation Xrotation
						JOINT Head
						{
							OFFSET 0.104070 1.761360 -0.123970
							CHANNELS 3 Zrotation Yrotation Xrotation
							End Site
							{
								OFFSET 0.000000 0.000000 0.000000
							}
						}
					}
				}
				JOINT LeftShoulder
				{
					OFFSET 0.000000 0.000000 0.000000
					CHANNELS 3 Zrotation Yrotation Xrotation
					JOINT LeftArm
					{
						OFFSET 3.362410 1.200890 -0.311210
						CHANNELS 3 Zrotation Yrotation Xrotation
						JOINT LeftForeArm
						{
							OFFSET 4.983000 -0.000000 -0.000000
							CHANNELS 3 Zrotation Yrotation Xrotation
							JOINT LeftHand
							{
								OFFSET 3.483560 -0.000000 -0.000000
								CHANNELS 3 Zrotation Yrotation Xrotation
								JOINT LeftFingerBase
								{
									OFFSET 0.000000 0.000000 0.000000
									CHANNELS 3 Zrotation Yrotation Xrotation
									JOINT LeftHandIndex1
									{
										OFFSET 0.715260 -0.000000 -0.000000
										CHANNELS 3 Zrotation Yrotation Xrotation
										End Site
										{
											OFFSET 0.000000 0.000000 0.000000
										}
									}
								}
								JOINT LThumb
								{
									OFFSET 0.000000 0.000000 0.000000
									CHANNELS 3 Zrotation Yrotation Xrotation
									End Site
									{
										OFFSET 0.000000 0.000000 0.000000
									}
								}
							}
						}
					}
				}
				JOINT RightShoulder
				{
					OFFSET 0.000000 0.000000 0.000000
					CHANNELS 3 Zrotation Yrotation Xrotation
					JOINT RightArm
					{
						OFFSET -3.136600 1.374050 -0.404650
						CHANNELS 3 Zrotation Yrotation Xrotation
						JOINT RightForeArm
						{
							OFFSET -5.241900 -0.000000 -0.000000
							CHANNELS 3 Zrotation Yrotation Xrotation
							JOINT RightHand
							{
								OFFSET -3.444170 -0.000000 -0.000000
								CHANNELS 3 Zrotation Yrotation Xrotation
								JOINT RightFingerBase
								{
									OFFSET 0.000000 0.000000 0.000000
									CHANNELS 3 Zrotation Yrotation Xrotation
									JOINT RightHandIndex1
									{
										OFFSET -0.622530 -0.000000 -0.000000
										CHANNELS 3 Zrotation Yrotation Xrotation
										End Site
										{
											OFFSET 0.000000 0.000000 0.000000
										}
									}
								}
								JOINT RThumb
								{
									OFFSET 0.000000 0.000000 0.000000
									CHANNELS 3 Zrotation Yrotation Xrotation
									End Site
									{
										OFFSET 0.000000 0.000000 0.000000
									}
								}
							}
						}
					}
				}
			}
		}
	}
}
}
MOTION
Frames: 9
Frame Time: 0.008333
-0.894745 15.341097 0.091153 27.039397 79.926081 50.131788 -3.170693 -2.698134 12.957155 -1.162052 -2.423817 -0.217913 -4.777437 -2.285608 -0.767977 5.148728 -7.598131 -3.613768 -2.154713 -0.187268 0.686539 0.000000 0.000000 0.000000 1.318274 2.351340 0.282093 -54.325445 -33.124361 2.006781 -179.699325 -86.538786 179.948852 5.478466 2.923890 0.121583 -0.156538 0.475262 -0.000000 0.000000 0.000000 0.000000 0.000000 0.000000 0.000000 3.745909 -5.412950 1.746499 74.904946 -22.906896 19.574095 0.340371 64.297667 -0.038457 -18.772946 7.351560 -1.259138 0.168886 -0.194001 0.000000 0.000000 0.000000 0.000000 0.000000 0.000000 0.000000 
-0.705603 15.420157 0.156662 26.438131 79.570807 49.377086 -2.817081 -2.855872 12.859572 -1.072610 -2.607049 -0.218480 -4.677050 -2.476133 -0.714171 5.040466 -8.231073 -3.727038 -2.088898 -0.182326 0.665712 0.000000 0.000000 0.000000 2.004150 2.509593 0.190325 -52.982540 -33.524051 0.993901 -179.654803 -85.468273 179.951417 5.161051 2.610493 0.099254 -0.145456 0.490245 -0.000000 0.000000 0.000000 0.000000 0.000000 0.000000 0.000000 3.374444 -6.115731 1.640247 74.095607 -24.203887 20.400344 0.320864 66.238193 -0.037656 -18.505861 7.225957 -1.220391 0.171172 -0.194135 0.000000 0.000000 0.000000 0.000000 0.000000 0.000000 0.000000 
-0.512327 15.506328 0.224615 25.761664 79.178284 48.589291 -2.448326 -3.000965 12.710586 -0.974457 -2.778362 -0.234294 -4.562004 -2.656438 -0.659104 4.904918 -8.878177 -3.840645 -2.018003 -0.177043 0.645679 0.000000 0.000000 0.000000 2.622550 2.680859 0.098533 -51.723365 -33.591263 0.021798 -179.611651 -84.346717 179.953638 4.892844 2.356146 0.082428 -0.135914 0.502454 -0.000000 0.000000 0.000000 0.000000 0.000000 0.000000 0.000000 2.949106 -6.825179 1.525509 73.324336 -25.413087 21.173320 0.300269 68.171232 -0.036907 -18.210041 6.971846 -1.159446 0.173729 -0.193512 -0.000000 0.000000 0.000000 0.000000 0.000000 0.000000 0.000000 
-0.314837 15.598933 0.295063 25.000888 78.753205 47.760228 -2.062609 -3.132937 12.508635 -0.867208 -2.936918 -0.266100 -4.433292 -2.825451 -0.604348 4.746555 -9.522142 -3.949060 -1.943501 -0.171582 0.627901 0.000000 0.000000 0.000000 3.193622 2.858063 0.005684 -50.613148 -33.330689 -0.861812 -179.569297 -83.183808 179.955576 4.665200 2.163080 0.070103 -0.127947 0.511727 -0.000000 0.000000 0.000000 0.000000 0.000000 0.000000 0.000000 2.477134 -7.520780 1.405305 72.601759 -26.544286 21.888127 0.279913 70.064771 -0.036145 -17.883827 6.640414 -1.085605 0.176303 -0.192263 -0.000000 0.000000 0.000000 0.000000 0.000000 0.000000 0.000000 
-0.113213 15.697157 0.368257 24.153092 78.299280 46.885961 -1.661450 -3.251308 12.257012 -0.751830 -3.081856 -0.313450 -4.293746 -2.981953 -0.552164 4.573247 -10.147082 -4.049858 -1.867829 -0.166128 0.612848 0.000000 0.000000 0.000000 3.738972 3.037864 -0.088018 -49.701257 -32.759348 -1.616427 -179.526556 -81.986379 179.957351 4.464161 2.027640 0.061379 -0.121408 0.518113 -0.000000 0.000000 0.000000 0.000000 0.000000 0.000000 0.000000 1.974485 -8.183291 1.281720 71.933774 -27.610473 22.538206 0.260572 71.903978 -0.035344 -17.526954 6.288926 -1.008765 0.178638 -0.190752 -0.000000 0.000000 0.000000 0.000000 0.000000 0.000000 0.000000 
0.092358 15.800136 0.444545 23.223822 77.818022 45.968456 -1.247807 -3.356011 11.962766 -0.630198 -3.212683 -0.373646 -4.148421 -3.124891 -0.500639 4.394634 -10.747497 -4.147706 -1.792884 -0.160723 0.598905 0.000000 0.000000 0.000000 4.260505 3.238871 -0.178982 -48.997018 -31.933653 -2.207416 -179.482296 -80.772822 179.959074 4.276459 1.943031 0.055457 -0.116154 0.521821 -0.000000 0.000000 0.000000 0.000000 0.000000 0.000000 0.000000 1.460165 -8.805231 1.154491 71.319217 -28.612321 23.130043 0.242469 73.681339 -0.034504 -17.146070 5.975093 -0.938630 0.180571 -0.189495 -0.000000 0.000000 0.000000 0.000000 0.000000 0.000000 0.000000 
0.301409 15.906885 0.524356 22.229955 77.311031 45.017392 -0.829446 -3.446906 11.637426 -0.505342 -3.328942 -0.445459 -4.001823 -3.253429 -0.457016 4.223670 -11.306521 -4.241402 -1.723011 -0.155676 0.586170 0.000000 0.000000 0.000000 4.787224 3.443748 -0.266896 -48.524879 -30.856449 -2.627360 -179.434637 -79.539366 179.960944 4.082212 1.893293 0.051136 -0.111662 0.523295 -0.000000 0.000000 0.000000 0.000000 0.000000 0.000000 0.000000 0.964183 -9.367084 1.025358 70.758692 -29.571690 23.644621 0.225835 75.408987 -0.033649 -16.733054 5.745095 -0.881595 0.181805 -0.189129 -0.000000 0.000000 0.000000 0.000000 0.000000 0.000000 0.000000 
0.513537 16.016369 0.608122 21.193028 76.778436 44.047261 -0.411351 -3.524882 11.293425 -0.379983 -3.431206 -0.523994 -3.860179 -3.367493 -0.416352 4.069623 -11.832162 -4.341364 -1.659293 -0.150886 0.571395 0.000000 0.000000 0.000000 5.303696 3.682421 -0.346919 -48.248884 -29.607218 -2.864557 -179.382512 -78.306095 179.963030 3.871234 1.864147 0.047518 -0.107705 0.523060 -0.000000 0.000000 0.000000 0.000000 0.000000 0.000000 0.000000 0.505075 -9.877835 0.892749 70.246519 -30.471857 24.100471 0.210327 77.085471 -0.032818 -16.297952 5.635509 -0.842861 0.182286 -0.190198 -0.000000 0.000000 0.000000 0.000000 0.000000 0.000000 0.000000 
0.728215 16.127441 0.696243 20.140742 76.221755 43.076663 -0.001076 -3.591335 10.944398 -0.257110 -3.520694 -0.606593 -3.727977 -3.467928 -0.382241 3.942546 -12.319355 -4.450198 -1.604629 -0.146509 0.553661 0.000000 0.000000 0.000000 5.820335 3.946902 -0.417768 -48.155863 -28.203204 -2.931034 -179.324697 -77.074787 179.965455 3.630313 1.836389 0.043802 -0.103790 0.521712 -0.000000 0.000000 0.000000 0.000000 0.000000 0.000000 0.000000 0.106327 -10.332601 0.757519 69.781745 -31.317544 24.489415 0.195843 78.721195 -0.032041 -15.834555 5.664161 -0.823229 0.181818 -0.193176 -0.000000 0.000000 0.000000 0.000000 0.000000 0.000000 0.000000 
